<?xml version="1.0" encoding="UTF-8"?>
<svg width="22px" height="22px" viewBox="0 0 22 22" version="1.1" xmlns="http://www.w3.org/2000/svg" xmlns:xlink="http://www.w3.org/1999/xlink">
    <title>white600_small</title>
    <g id="页面-1" stroke="none" stroke-width="1" fill="none" fill-rule="evenodd">
        <path d="M4.4,4.4 L4.4,22 L0,22 L0,4.4 L4.4,4.4 Z M22,4.4 L22,22 L17.6,22 L17.6,4.4 L22,4.4 Z M12.0186126,7.10832935 C12.92612,7.34767193 13.5798354,7.64230426 14.1466309,8.122905 L14.2437802,8.3326528 L14.2437802,11.170475 L13.7799952,10.7326159 C13.2872349,10.2674012 12.9803188,10.041355 12.4707323,9.79700892 C11.6403259,9.36994278 10.7115115,9.33183758 10.1926436,9.79651422 C9.84290559,10.1248397 9.99910935,10.7329186 10.4200297,10.8614741 L11.2463569,11.15829 C11.9821872,11.4287492 12.4847635,11.6356662 13.0982205,11.9191367 C14.4476316,12.5771353 14.8918,13.5400454 14.8918,15.085128 C14.8918,17.2849926 12.9643014,18.5621082 10.5952653,18.5621082 C9.20043203,18.5621082 7.99920136,18.1334364 6.75455848,17.2240018 L6.6418,17.1416115 L6.6418,14.5383331 L7.95193767,15.1670663 C9.06751877,15.6834704 9.82450735,15.900606 10.5380871,15.8338904 C11.3646694,15.8338904 11.6929936,15.6837994 11.7936688,15.1377179 C11.9184945,14.5411483 11.38423,14.0436597 10.6023772,13.7858115 L9.78139988,13.5463999 C7.50062434,12.8752258 6.66085941,12.1897311 6.66085941,10.4019597 C6.66085941,7.73386574 9.44775075,6.42371621 12.0186126,7.10832935 Z M8.8,0 L8.8,4.4 L4.4,4.4 L4.4,0 L8.8,0 Z M17.6,0 L17.6,4.4 L13.2,4.4 L13.2,0 L17.6,0 Z" id="white600_small" fill="#FFFFFF"></path>
    </g>
</svg>