<?xml version="1.0" encoding="UTF-8"?>
<svg width="113px" height="20px" viewBox="0 0 113 20" version="1.1" xmlns="http://www.w3.org/2000/svg" xmlns:xlink="http://www.w3.org/1999/xlink">
    <title>编组 14</title>
    <g id="页面-1" stroke="none" stroke-width="1" fill="none" fill-rule="evenodd">
        <g id="编组-14" fill="#FFFFFF">
            <path d="M36.4069958,12.7575953 C36.4069958,13.1700065 36.308133,13.5776772 36.1104075,13.9806076 C35.912682,14.383538 35.6356222,14.7248438 35.2792281,15.0045249 C34.8886591,15.3079078 34.4334023,15.5449257 33.9134574,15.7155785 C33.3935125,15.8862314 32.7673818,15.9715579 32.035065,15.9715579 C31.2490451,15.9715579 30.5423595,15.9004525 29.9150082,15.7582418 C29.2876569,15.616031 28.6493208,15.4050851 28,15.125404 L28,13.361991 L28.1025243,13.361991 C28.6542029,13.8075846 29.2913185,14.1512605 30.0138709,14.3930187 C30.7364234,14.634777 31.4150369,14.7556561 32.0497114,14.7556561 C32.9480199,14.7556561 33.6473823,14.5921138 34.1477987,14.2650291 C34.6482152,13.9379444 34.8984234,13.5018315 34.8984234,12.9566904 C34.8984234,12.487395 34.7800322,12.1413488 34.5432498,11.918552 C34.3064674,11.6957552 33.9464116,11.5227322 33.4630826,11.3994829 C33.1884639,11.3283775 32.8966814,11.2666047 32.5877353,11.2141645 L32.273068,11.1648352 C31.8458832,11.1032105 31.3930674,11.0249946 30.9146205,10.9301875 C29.9479624,10.7310924 29.2315126,10.3909718 28.765271,9.90982547 C28.2990293,9.42867916 28.0659085,8.80176686 28.0659085,8.02908856 C28.0659085,7.14264167 28.4515953,6.41618186 29.2229689,5.84970911 C29.9943425,5.28323637 30.9732058,5 32.1595589,5 C32.9260504,5 33.6290744,5.07110537 34.268631,5.2133161 C34.9081876,5.35552683 35.4745125,5.53092006 35.9676058,5.7394958 L35.9676058,7.40336134 L35.8650814,7.40336134 C35.4501019,7.06205559 34.904526,6.77881922 34.2283536,6.55365223 C33.5521812,6.32848524 32.8601419,6.21590175 32.1522357,6.21590175 C31.37598,6.21590175 30.7522903,6.37233355 30.2811665,6.68519716 C29.8100428,6.99806076 29.5744809,7.40099117 29.5744809,7.89398836 C29.5744809,8.33484163 29.6916516,8.68088774 29.9259929,8.9321267 C30.1603343,9.18336565 30.5728727,9.37535014 31.1636082,9.50808016 L31.63797,9.60124269 L32.4964246,9.7498384 C33.0725137,9.84464555 33.5607248,9.94182288 33.961058,10.0413704 C34.7714885,10.2499461 35.3817524,10.5651799 35.7918497,10.9870718 C36.2019471,11.4089636 36.4069958,11.9991381 36.4069958,12.7575953 Z M50.5626777,15.7795734 L49.1859223,15.7795734 L49.1859223,11.2572721 C49.1859223,10.9159664 49.1700554,10.5865115 49.1383217,10.2689076 C49.106588,9.9513036 49.0394589,9.69769446 48.9369346,9.50808016 C48.824646,9.30424477 48.6635364,9.15018315 48.4536056,9.04589528 C48.2436748,8.94160741 47.9409839,8.88946348 47.5455329,8.88946348 C47.1598461,8.88946348 46.7741593,8.98308554 46.3884725,9.17032967 C46.0027857,9.3575738 45.6170989,9.59577677 45.2314121,9.88493859 C45.2460584,9.99396682 45.2582637,10.1207714 45.2680279,10.2653523 C45.2777921,10.4099332 45.2826742,10.553329 45.2826742,10.6955398 L45.2826742,15.7795734 L43.9059188,15.7795734 L43.9059188,11.2572721 C43.9059188,10.9064857 43.890052,10.5734755 43.8583183,10.2582418 C43.8265845,9.94300797 43.7594555,9.69058393 43.6569312,9.50096962 C43.5446426,9.29713424 43.3835329,9.1442577 43.1736021,9.04234001 C42.9636713,8.94042232 42.6609804,8.88946348 42.2655294,8.88946348 C41.8896068,8.88946348 41.5124637,8.97953027 41.1341001,9.15966387 C40.7557365,9.33979746 40.3785934,9.5697048 40.0026708,9.84938591 L40.0026708,15.7795734 L38.6259154,15.7795734 L38.6259154,7.83710407 L40.0026708,7.83710407 L40.0026708,8.7188106 C40.4322966,8.37276449 40.8607019,8.1025641 41.2878866,7.90820944 C41.7150714,7.71385477 42.1703283,7.61667744 42.6536573,7.61667744 C43.210218,7.61667744 43.6825622,7.73044602 44.0706901,7.95798319 C44.458818,8.18552036 44.7480831,8.50075415 44.9384854,8.90368455 C45.4950461,8.44861021 46.0027857,8.12034044 46.4617041,7.91887524 C46.9206226,7.71741004 47.4112748,7.61667744 47.9336607,7.61667744 C48.8319692,7.61667744 49.4947158,7.88095238 49.9219006,8.40950226 C50.3490853,8.93805214 50.5626777,9.67636285 50.5626777,10.6244344 L50.5626777,15.7795734 Z M59.5701732,15.7795734 L58.2007409,15.7795734 L58.2007409,14.9334195 L57.7064272,15.27117 C57.4989374,15.4157509 57.2975503,15.5307046 57.1022659,15.616031 C56.8728066,15.7250593 56.6091726,15.8163111 56.3113638,15.8897867 C56.013555,15.9632622 55.6644841,16 55.2641509,16 C54.5269521,16 53.9020419,15.7629821 53.3894202,15.2889463 C52.8767985,14.8149106 52.6204876,14.210515 52.6204876,13.4757595 C52.6204876,12.8737341 52.7535252,12.3866624 53.0196002,12.0145443 C53.2856753,11.6424262 53.6652595,11.3497091 54.1583527,11.136393 C54.6563281,10.9230769 55.2543867,10.778496 55.9525286,10.7026503 C56.6506706,10.6268046 57.4000747,10.5699203 58.2007409,10.5319974 L58.2007409,10.3257919 C58.2007409,10.022409 58.1458172,9.77117001 58.0359697,9.57207498 C57.9261222,9.37297996 57.7686741,9.21654816 57.5636254,9.10277957 C57.3683409,8.99375135 57.1339996,8.9202758 56.8606014,8.88235294 C56.5872031,8.84443008 56.3015996,8.82546865 56.0037908,8.82546865 C55.6425146,8.82546865 55.2397404,8.87168714 54.7954683,8.96412411 C54.3511961,9.05656109 53.8922776,9.19047619 53.4187128,9.36586942 L53.3454812,9.36586942 L53.3454812,8.00775695 L53.6049305,7.94506814 C53.8455489,7.89137633 54.1471936,7.8340567 54.5098647,7.77310924 C55.0176043,7.68778281 55.5180207,7.64511959 56.011114,7.64511959 C56.5872031,7.64511959 57.0888401,7.69133807 57.5160248,7.78377505 C57.9432096,7.87621202 58.3130295,8.03382892 58.6254846,8.25662573 C58.9330576,8.47468218 59.167399,8.75673346 59.3285087,9.10277957 C59.4896183,9.44882568 59.5701732,9.87782805 59.5701732,10.3897867 L59.5701732,15.7795734 Z M58.2007409,13.8241758 L58.2007409,11.612799 C57.7808794,11.6365008 57.2865656,11.6720534 56.7177996,11.719457 C56.1490336,11.7668606 55.6986589,11.8355958 55.3666753,11.9256626 C54.9712243,12.0346908 54.651446,12.2041586 54.4073404,12.4340659 C54.1632348,12.6639733 54.041182,12.9803922 54.041182,13.3833226 C54.041182,13.8383969 54.1827633,14.1808877 54.4659257,14.4107951 C54.7490882,14.6407024 55.1811551,14.7556561 55.7621263,14.7556561 C56.2454553,14.7556561 56.6872864,14.6644042 57.0876195,14.4819005 C57.4879527,14.2993967 57.8589931,14.0801551 58.2007409,13.8241758 Z M67.3254071,9.29476406 L67.2521754,9.29476406 C67.0471267,9.24736048 66.8481807,9.21299289 66.6553373,9.19166128 C66.4624939,9.17032967 66.2342552,9.15966387 65.9706212,9.15966387 C65.5458775,9.15966387 65.1357801,9.25091575 64.7403291,9.43341952 C64.3448781,9.61592329 63.9640734,9.85175609 63.5979151,10.1409179 L63.5979151,15.7795734 L62.2211596,15.7795734 L62.2211596,7.83710407 L63.5979151,7.83710407 L63.5979151,9.0103426 C64.1447115,8.58371041 64.62682,8.28151261 65.0442405,8.10374919 C65.4616611,7.92598578 65.8876253,7.83710407 66.3221332,7.83710407 L66.6815542,7.84350356 C66.7135809,7.84492566 66.7429712,7.84658479 66.7697252,7.84848093 L66.9967433,7.87422107 C67.0869648,7.8864512 67.1965193,7.90252101 67.3254071,7.92243051 L67.3254071,9.29476406 Z M72.8690445,15.708468 C72.6102926,15.774833 72.3283507,15.8293471 72.0232187,15.8720103 C71.7180868,15.9146736 71.4459091,15.9360052 71.2066856,15.9360052 C70.3718446,15.9360052 69.7371701,15.7179487 69.3026622,15.2818358 C68.8681543,14.8457229 68.6509003,14.1465201 68.6509003,13.1842275 L68.6509003,8.96056884 L67.7208581,8.96056884 L67.7208581,7.83710407 L68.6509003,7.83710407 L68.6509003,5.55462185 L70.0276557,5.55462185 L70.0276557,7.83710407 L72.8690445,7.83710407 L72.8690445,8.96056884 L70.0276557,8.96056884 L70.0276557,12.5798319 C70.0276557,12.9969834 70.0374199,13.322883 70.0569484,13.5575307 C70.0764768,13.7921784 70.1448264,14.01142 70.2619971,14.2152553 C70.3694035,14.4048696 70.5170874,14.5435251 70.7050487,14.6312217 C70.89301,14.7189183 71.179834,14.7627666 71.5655208,14.7627666 C71.7900979,14.7627666 72.0244393,14.7307692 72.2685448,14.6667744 L72.5286637,14.5951002 C72.6423193,14.5618229 72.731369,14.5323853 72.7958129,14.5067873 L72.8690445,14.5067873 L72.8690445,15.708468 Z M80.3752908,13.4899806 C80.3752908,14.2152553 80.0664972,14.8101702 79.4489101,15.2747253 C78.8313231,15.7392803 77.9879383,15.9715579 76.9187559,15.9715579 C76.3133741,15.9715579 75.7580339,15.9016376 75.2527354,15.761797 C74.7474369,15.6219565 74.3239137,15.4690799 73.9821659,15.3031674 L73.9821659,13.8028442 L74.0553976,13.8028442 C74.4899055,14.1204482 74.9732345,14.3728722 75.5053847,14.5601164 C76.0375348,14.7473605 76.5477155,14.8409825 77.0359266,14.8409825 C77.6413084,14.8409825 78.1148732,14.7461754 78.456621,14.5565611 C78.7983688,14.3669468 78.9692427,14.0683042 78.9692427,13.6606335 C78.9692427,13.3477699 78.8764826,13.110752 78.6909624,12.9495798 C78.5054421,12.7884077 78.149048,12.6509373 77.62178,12.5371687 L77.03827,12.4211248 L76.856509,12.3878474 C76.5416128,12.3309632 76.2547888,12.2693385 75.9960369,12.2029735 C75.2783665,12.0180995 74.7694064,11.7467141 74.4691565,11.3888171 C74.1689067,11.0309201 74.0187818,10.5912519 74.0187818,10.0698125 C74.0187818,9.74272786 74.0883519,9.43460461 74.227492,9.14544279 C74.3666322,8.85628097 74.5777835,8.59793148 74.860946,8.37039431 C75.1343442,8.1475975 75.4821947,7.97101918 75.9044973,7.84065934 C76.3267999,7.7102995 76.7991442,7.64511959 77.3215301,7.64511959 C77.8097412,7.64511959 78.304055,7.70318897 78.8044714,7.81932773 C79.3048879,7.93546649 79.7210878,8.07649214 80.0530714,8.24240465 L80.0530714,9.6716225 L79.9798398,9.6716225 C79.6283277,9.42038354 79.201143,9.20825253 78.6982855,9.03522948 C78.195428,8.86220642 77.7023348,8.77569489 77.2190058,8.77569489 C76.7161483,8.77569489 76.2914046,8.86931696 75.9447747,9.05656109 C75.5981448,9.24380521 75.4248298,9.52230123 75.4248298,9.89204913 C75.4248298,10.2191338 75.5297952,10.4656324 75.739726,10.6315449 C75.9447747,10.7974574 76.2767583,10.9325576 76.7356767,11.0368455 C76.9049233,11.0747684 77.0877312,11.1126912 77.2841006,11.1506141 L78.021808,11.2892696 C78.1530147,11.3153415 78.2711008,11.3402284 78.3760662,11.3639302 C79.0156228,11.5061409 79.508716,11.7502693 79.8553459,12.0963154 C80.2019758,12.4471019 80.3752908,12.911657 80.3752908,13.4899806 Z M88.3941587,15.2818358 C87.9352402,15.4951519 87.4995118,15.6610644 87.0869734,15.7795734 C86.674435,15.8980823 86.2362655,15.9573368 85.7724649,15.9573368 C85.1817294,15.9573368 84.6398151,15.8731954 84.1467218,15.7049127 C83.6536286,15.53663 83.2313259,15.2818358 82.8798139,14.9405301 C82.5234198,14.5992243 82.2475805,14.1678518 82.052296,13.6464124 C81.8570116,13.1249731 81.7593693,12.5158371 81.7593693,11.8190045 C81.7593693,10.5201465 82.1267482,9.50096962 82.861506,8.76147382 C83.5962637,8.02197802 84.5665834,7.65223012 85.7724649,7.65223012 C86.2411476,7.65223012 86.7012866,7.71622495 87.1528819,7.84421461 C87.6044772,7.97220427 88.0182361,8.12863607 88.3941587,8.31351002 L88.3941587,9.79961215 L88.320927,9.79961215 C87.9010654,9.48200819 87.4677781,9.23787977 87.0210649,9.06722689 C86.5743517,8.89657401 86.1386232,8.81124758 85.7138796,8.81124758 C84.9327417,8.81124758 84.3163752,9.0660418 83.8647799,9.57563025 C83.4131846,10.0852187 83.1873869,10.8330101 83.1873869,11.8190045 C83.1873869,12.7765568 83.4083025,13.5124973 83.8501335,14.0268261 C84.2919646,14.5411549 84.9132133,14.7983193 85.7138796,14.7983193 C85.9921599,14.7983193 86.2753224,14.7627666 86.5633669,14.6916613 C86.8514115,14.6205559 87.1101634,14.5281189 87.3396226,14.4143504 C87.5397892,14.3148028 87.7277505,14.2093299 87.9035065,14.0979315 L88.1396786,13.9423885 C88.2092487,13.8943924 88.2696649,13.8502478 88.320927,13.8099548 L88.3941587,13.8099548 L88.3941587,15.2818358 Z M97.130697,11.811894 C97.130697,13.1060116 96.7889492,14.1275587 96.1054536,14.8765352 C95.421958,15.6255117 94.5065621,16 93.359266,16 C92.2022056,16 91.2831481,15.6255117 90.6020936,14.8765352 C89.921039,14.1275587 89.5805118,13.1060116 89.5805118,11.811894 C89.5805118,10.5177763 89.921039,9.49504417 90.6020936,8.74369748 C91.2831481,7.99235079 92.2022056,7.61667744 93.359266,7.61667744 C94.5065621,7.61667744 95.421958,7.99235079 96.1054536,8.74369748 C96.7889492,9.49504417 97.130697,10.5177763 97.130697,11.811894 Z M95.7100026,11.811894 C95.7100026,10.7832364 95.5025129,10.0188537 95.0875334,9.51874596 C94.6725539,9.01863822 94.0964648,8.76858436 93.359266,8.76858436 C92.6123029,8.76858436 92.0325522,9.01863822 91.6200138,9.51874596 C91.2074754,10.0188537 91.0012062,10.7832364 91.0012062,11.811894 C91.0012062,12.8073691 91.2086959,13.5622711 91.6236754,14.0765999 C92.0386548,14.5909287 92.617185,14.8480931 93.359266,14.8480931 C94.0915827,14.8480931 94.6664513,14.5932989 95.0838718,14.0837104 C95.5012923,13.574122 95.7100026,12.8168498 95.7100026,11.811894 Z M106.042991,15.7795734 L104.666236,15.7795734 L104.666236,14.8978668 C104.202435,15.2533937 103.758163,15.5259642 103.333419,15.7155785 C102.908676,15.9051928 102.439993,16 101.927371,16 C101.06812,16 100.399271,15.7452058 99.9208236,15.2356173 C99.4423767,14.7260289 99.2031533,13.9782374 99.2031533,12.9922431 L99.2031533,7.83710407 L100.579909,7.83710407 L100.579909,12.3594053 C100.579909,12.7623357 100.599437,13.1071967 100.638494,13.3939884 C100.677551,13.68078 100.760547,13.9260935 100.887482,14.1299289 C101.019299,14.3385046 101.190173,14.4901961 101.400103,14.5850032 C101.610034,14.6798104 101.915166,14.727214 102.315499,14.727214 C102.671893,14.727214 103.061242,14.6371472 103.483544,14.4570136 C103.905847,14.27688 104.300078,14.0469726 104.666236,13.7672915 L104.666236,7.83710407 L106.042991,7.83710407 L106.042991,15.7795734 Z M113,15.708468 C112.741248,15.774833 112.459306,15.8293471 112.154174,15.8720103 C111.849042,15.9146736 111.576865,15.9360052 111.337641,15.9360052 C110.5028,15.9360052 109.868126,15.7179487 109.433618,15.2818358 C108.99911,14.8457229 108.781856,14.1465201 108.781856,13.1842275 L108.781856,8.96056884 L107.851814,8.96056884 L107.851814,7.83710407 L108.781856,7.83710407 L108.781856,5.55462185 L110.158611,5.55462185 L110.158611,7.83710407 L113,7.83710407 L113,8.96056884 L110.158611,8.96056884 L110.158611,12.5798319 C110.158611,12.9969834 110.168375,13.322883 110.187904,13.5575307 C110.207432,13.7921784 110.275782,14.01142 110.392953,14.2152553 C110.500359,14.4048696 110.648043,14.5435251 110.836004,14.6312217 C111.023965,14.7189183 111.310789,14.7627666 111.696476,14.7627666 C111.921053,14.7627666 112.155395,14.7307692 112.3995,14.6667744 L112.659619,14.5951002 C112.773275,14.5618229 112.862324,14.5323853 112.926768,14.5067873 L113,14.5067873 L113,15.708468 Z" id="形状" fill-rule="nonzero"></path>
            <path d="M4,4 L4,20 L0,20 L0,4 L4,4 Z M20,4 L20,20 L16,20 L16,4 L20,4 Z M10.9260115,6.46211759 C11.7510181,6.67970176 12.3453049,6.94754933 12.8605735,7.38445909 L12.9488911,7.57513891 L12.9488911,10.1549773 L12.5272684,9.7569235 C12.0793045,9.33400107 11.8002899,9.12850459 11.3370293,8.90637175 C10.5821144,8.5181298 9.73773776,8.48348871 9.26603967,8.90592202 C8.94809599,9.20439976 9.09009941,9.75719877 9.47275423,9.8740674 L10.2239608,10.1439 C10.8928974,10.3897654 11.349785,10.5778784 11.9074732,10.8355789 C13.1342105,11.4337594 13.538,12.3091322 13.538,13.7137528 C13.538,15.7136296 11.7857285,16.8746439 9.63205941,16.8746439 C8.36402912,16.8746439 7.27200124,16.4849422 6.14050771,15.6581835 L6.038,15.5832832 L6.038,13.2166664 L7.22903425,13.7882421 C8.24319888,14.2577004 8.93137032,14.4550964 9.58007921,14.3944458 C10.3315177,14.3944458 10.6299942,14.2579994 10.7215171,13.7615617 C10.834995,13.2192257 10.3493,12.7669633 9.63852468,12.5325559 L8.89218171,12.314909 C6.8187494,11.7047507 6.05532673,11.0815737 6.05532673,9.45632702 C6.05532673,7.03078703 8.58886432,5.83974201 10.9260115,6.46211759 Z M8,0 L8,4 L4,4 L4,0 L8,0 Z M16,0 L16,4 L12,4 L12,0 L16,0 Z" id="形状结合"></path>
        </g>
    </g>
</svg>