<?xml version="1.0" encoding="UTF-8"?>
<svg width="175px" height="180px" viewBox="0 0 175 180" version="1.1" xmlns="http://www.w3.org/2000/svg" xmlns:xlink="http://www.w3.org/1999/xlink">
    <title>safari-pinned-tab</title>
    <g id="页面-1" stroke="none" stroke-width="1" fill="none" fill-rule="evenodd">
        <g id="1111" transform="translate(-362, -394)" fill="#000000" fill-rule="nonzero">
            <g id="safari-pinned-tab" transform="translate(362, 394)">
                <path d="M34.7375,2.9 C31.8375,5.8 31.8375,5.9 31.8375,17.9 C31.8375,24.7 31.3375,31 30.7375,32.4 C28.8375,36.4 24.1375,38 14.1375,38 C4.5375,38 1.5375,39.4 0.3375,44.3 C0.0375,45.5 -0.0625,75.4 0.0375,110.7 L0.3375,174.9 L2.6375,177.2 C4.7375,179.3 5.9375,179.5 17.2375,179.8 C32.0375,180.2 35.1375,179.2 36.7375,173.2 C37.4375,170.8 37.8375,147 37.8375,106.3 L37.8375,43.1 L40.2375,40.3 C42.5375,37.6 43.1375,37.5 53.8375,37 C68.8375,36.3 68.8375,36.4 68.8375,18.8 L68.8375,5.8 L65.9375,2.9 C63.0375,0 63.0375,0 50.3375,0 C37.6375,0 37.6375,0 34.7375,2.9 Z M111.6375,1.5 C107.7375,3.7 106.5375,9.3 107.0375,21.9 C107.5375,31.7 107.6375,32.5 110.2375,34.7 C112.5375,36.7 114.0375,37 120.7375,37 C125.0375,37 129.9375,37.5 131.7375,38.1 C138.0375,40.3 137.8375,38.4 137.8375,109.5 L137.8375,174.2 L140.7375,177.1 C143.6375,180 143.7375,180 156.1375,180 C168.1375,180 168.8375,179.9 171.7375,177.4 L174.8375,174.8 L174.8375,42.9 L172.3375,40.5 C170.1375,38.3 169.1375,38 161.8375,38 C153.7375,38 147.8375,36.4 146.2375,33.9 C145.7375,33.1 145.1375,26.3 144.8375,18.8 C144.1375,0.3 144.4375,0.6 127.0375,0.2 C117.2375,0.1 113.7375,0.3 111.6375,1.5 Z M122.671929,124.323395 C122.671929,129.865677 121.254383,134.661882 118.419293,138.712011 C115.584203,142.76214 111.629998,145.863686 106.556679,148.016649 C101.48336,150.169612 95.6639641,151.246094 89.0984921,151.246094 C87.2652759,151.246094 85.0163886,151.128853 82.3518301,150.894372 C79.6872717,150.659891 76.1487381,150.009739 71.7362293,148.943915 C67.3237205,147.878092 62.7300218,146.300673 57.955133,144.211659 L57.955133,122.468863 C62.4315912,125.240003 66.8334418,127.542182 71.1606847,129.375398 C75.4879276,131.208614 80.1242593,132.125222 85.0696798,132.125222 C89.6314038,132.125222 92.5837346,131.368488 93.926672,129.855019 C95.2696095,128.341549 95.9410782,126.924004 95.9410782,125.602383 C95.9410782,123.214939 94.789989,121.200533 92.4878105,119.559165 C90.185632,117.917797 86.8389466,116.223138 82.4477542,114.475187 C77.5875996,112.428806 73.3243061,110.201235 69.6578737,107.792475 C65.9914413,105.383714 62.9964776,102.367434 60.6729826,98.7436342 C58.3494877,95.1198347 57.1877402,90.8352247 57.1877402,85.8898042 C57.1877402,81.1149155 58.3601459,76.7983308 60.7049573,72.9400502 C63.0497688,69.0817696 66.6309353,66.00154 71.448457,63.6993615 C76.2659787,61.397183 82.1493237,60.2460938 89.0984921,60.2460938 C94.0439126,60.2460938 98.6162949,60.7257143 102.815639,61.6849553 C107.014983,62.6441964 110.478909,63.720678 113.207417,64.9144001 C115.935925,66.1081223 117.811774,67.0460469 118.834964,67.7281739 L118.834964,88.5117297 C115.211165,85.9111207 111.171694,83.5876257 106.716553,81.5412448 C102.261411,79.494864 97.4971803,78.4716735 92.4238611,78.4716735 C89.0984921,78.4716735 86.6897313,79.1111675 85.1975786,80.3901556 C83.7054258,81.6691436 82.9593495,83.2465622 82.9593495,85.1224114 C82.9593495,86.8703617 83.7054258,88.3838309 85.1975786,89.662819 C86.6897313,90.941807 89.3542897,92.4979092 93.1912539,94.3311254 C100.012524,97.5285955 105.469539,100.406319 109.562301,102.964295 C113.655063,105.522271 116.863191,108.474602 119.186686,111.821287 C121.510181,115.167972 122.671929,119.335342 122.671929,124.323395 Z" id="形状"></path>
            </g>
        </g>
    </g>
</svg>